# xmcd
#
# Track frame offsets:
#	150
#	10224
#	21880
#	35015
#	48233
#	58757
#	69119
#	80672
#	93903
#	105895
#	117980
#	129921
#
# Disc length: 1885 seconds
#
# Revision: 0
# Processed by: cddbd v1.5.2PL0 Copyright (c) Steve Scherf et al.
# Submitted via: audiograbber 1.83.01
#
DISCID=8e075b0c
DTITLE=Little Richard - Little Richard
DYEAR=1958
DGENRE=Blues
TTITLE0=Ain't nothin' happenin'
TTITLE1=Why did you leave me ?
TTITLE2=Every hour
TTITLE3=I brought it all on myself
TTITLE4=Taxi blues
TTITLE5=Get rich quick
TTITLE6=Please have mercy on me
TTITLE7=Thinkin' about my mother
TTITLE8=Crazy lips
TTITLE9=Any hour
TTITLE10=Hey operator
TTITLE11=That's a lot of brass
EXTD=
EXTT0=
EXTT1=
EXTT2=
EXTT3=
EXTT4=
EXTT5=
EXTT6=
EXTT7=
EXTT8=
EXTT9=
EXTT10=
EXTT11=
PLAYORDER=
